inDegrees=no
num_controls=7
num_derivatives=13
num_iterations=126
num_multipliers=7
num_parameters=0
num_slacks=7
num_states=26
objective=0.445716
objective_accelerations=0.057210
objective_balance=0.003324
objective_effort=0.022611
objective_height=0.357041
objective_ligament=0.005530
solver_duration=1684.436229
status=Solve_Succeeded
success=true
DataType=double
version=3
OpenSimVersion=4.5
endheader
time	/jointset/ground_pelvis/pelvis_tilt/value	/jointset/ground_pelvis/pelvis_tx/value	/jointset/ground_pelvis/pelvis_ty/value	/jointset/hip_l/hip_flexion_l/value	/jointset/hip_l/hip_adduction_l/value	/jointset/hip_l/hip_rotation_l/value	/jointset/back/lumbar_extension/value	/jointset/patellofemoral_l/patellar_flexion_l/value	/jointset/knee_l/knee_flexion_l/value	/jointset/knee_l/knee_adduction_l/value	/jointset/knee_l/knee_rotation_l/value	/jointset/ankle_l/ankle_angle_l/value	/jointset/subtalar_l/subtalar_angle_l/value	/jointset/ground_pelvis/pelvis_tilt/speed	/jointset/ground_pelvis/pelvis_tx/speed	/jointset/ground_pelvis/pelvis_ty/speed	/jointset/hip_l/hip_flexion_l/speed	/jointset/hip_l/hip_adduction_l/speed	/jointset/hip_l/hip_rotation_l/speed	/jointset/back/lumbar_extension/speed	/jointset/patellofemoral_l/patellar_flexion_l/speed	/jointset/knee_l/knee_flexion_l/speed	/jointset/knee_l/knee_adduction_l/speed	/jointset/knee_l/knee_rotation_l/speed	/jointset/ankle_l/ankle_angle_l/speed	/jointset/subtalar_l/subtalar_angle_l/speed	/forceset/tau_hip_flexion_l	/forceset/tau_hip_adduction_l	/forceset/tau_hip_rotation_l	/forceset/tau_knee_flexion_l	/forceset/tau_ankle_angle_l	/forceset/tau_subtalar_angle_l	/forceset/tau_lumbar_extension	lambda_cid13_p0	lambda_cid13_p1	lambda_cid13_p2	lambda_cid13_p3	lambda_cid13_p4	lambda_cid13_p5	lambda_cid14_p0	/jointset/ground_pelvis/pelvis_tilt/accel	/jointset/ground_pelvis/pelvis_tx/accel	/jointset/ground_pelvis/pelvis_ty/accel	/jointset/hip_l/hip_flexion_l/accel	/jointset/hip_l/hip_adduction_l/accel	/jointset/hip_l/hip_rotation_l/accel	/jointset/back/lumbar_extension/accel	/jointset/patellofemoral_l/patellar_flexion_l/accel	/jointset/knee_l/knee_flexion_l/accel	/jointset/knee_l/knee_adduction_l/accel	/jointset/knee_l/knee_rotation_l/accel	/jointset/ankle_l/ankle_angle_l/accel	/jointset/subtalar_l/subtalar_angle_l/accel	gamma_cid13_p0	gamma_cid13_p1	gamma_cid13_p2	gamma_cid13_p3	gamma_cid13_p4	gamma_cid13_p5	gamma_cid14_p0
0	-0.03898443040202179	0.06867453880081685	0.8959290213093487	0.1955287580552426	-0.3222341144432028	-0.4788485092829476	-0.1379045077516729	0.07015288079084968	0.07015288079084844	-0.1745328418651066	-0.1135419206565087	-0.06701059314715049	0.003523546921338352	0	0	0	0	0	0	0	0	0	0	0	0	0	0.1082703893742682	-0.09890748608198398	-0.03043487699379929	-0.2415090594772826	0.2065889603453762	-0.01838990381599554	-0.05213123225173337	30.62047604381886	-0.1429800559051438	2.848932688063974	-4.849594610812674	-515.4665076669015	-77.75574042441764	-39.80191731234153	-4.317255662805761	-1.719526610816667	-0.9610738597441476	12.29950748230608	-2.127761541999222	3.324090058932628	-2.804007276480633	10.33678471697145	10.33678471697129	0.668146356105433	-0.8732095881905555	2.554423281572039	-0.9442713186173869	-3.125513183555201e-08	1.066383932154664e-07	1.25855748333418e-07	1.390079835916695e-08	-2.709392370663109e-08	-5.244434932507038e-08	-7.990064127436826e-09
0.01	-0.03919015559942199	0.06858971270845152	0.8958823714049533	0.1961234285039943	-0.3223388543674217	-0.4786814684189378	-0.1380505136717531	0.07065511373713115	0.07065511373713027	-0.1745028423582467	-0.1135792922292814	-0.06688777748675069	0.003475427394567801	-0.04094150970435621	-0.01689136603842892	-0.009299776908269797	0.1183987726353764	-0.02084356535211578	0.03327771529901048	-0.02894672220089323	0.100004497428824	0.1000044974288239	0.005985801487957835	-0.007424642000081188	0.0244559873057149	-0.009569016415419882	0.1035412548011232	-0.09850698487024236	-0.02948788865164242	-0.2353312620760452	0.1975207272865484	-0.01450485719345583	-0.04816163780656066	27.82458897911951	-1.35473425397561	3.058130767915351	-3.731221559006058	-516.3012844212816	-80.27350659850561	-39.81214336440591	-3.952079904550442	-1.662860955060084	-0.9099044295355697	11.52975328233568	-2.047021663046969	3.310029047327891	-2.901835419572461	9.765970079665497	9.765970079665527	0.5617152002887246	-0.6696275091334417	2.375115719939413	-0.9550147171412082	-7.115996530057064e-08	1.417971409964128e-07	2.067675681513051e-07	4.990138923226341e-08	-2.477414027126766e-07	-1.03635991059746e-07	-1.378812172359195e-08
0.02	-0.03979919214992706	0.06833818908476098	0.8957436287668418	0.1978860249047373	-0.322648903471408	-0.4781855670455512	-0.138478352959378	0.07214412922247165	0.07214412922247128	-0.1744134012054645	-0.1136894174226898	-0.06652361610032026	0.003333258120815676	-0.08066227062070726	-0.03333950626504522	-0.01841854674322572	0.2335851903980384	-0.04106183595340158	0.06577210187572677	-0.05636667350893363	0.1973565078107536	0.1973565078107525	0.01188832918182574	-0.01455072412882519	0.04826914520615765	-0.01880994939631733	0.09881212022801442	-0.09810648365849833	-0.02854090030952252	-0.2291534646747762	0.1884524942277332	-0.01061981057090623	-0.04419204336137008	25.09254240592155	-2.578981092261402	3.27082340625839	-2.781532868543812	-516.2094344730684	-82.6275801255362	-39.8422411542092	-4.073105905204705	-1.630881448454162	-0.9248724450813751	11.65703650776321	-2.002702591833239	3.167424314473784	-2.498653097910049	9.806287307592582	9.806287307592216	0.6514915972874167	-0.8134976139231259	2.425857400517581	-0.8786546317129299	-1.110647987655893e-07	1.769558887773593e-07	2.876793879691923e-07	8.590198010535986e-08	-4.683888817187222e-07	-1.548276327944217e-07	-1.958617931974708e-08
0.03	-0.04080004465349012	0.06792454406177165	0.8955143068096975	0.2007854834423632	-0.3231578402500828	-0.4773688935023355	-0.1391722622109735	0.07459396021474478	0.07459396021474743	-0.1742650415329275	-0.1138697211141991	-0.06592417262984304	0.003100684763928228	-0.1193141400115613	-0.04929855428056514	-0.02743648088469789	0.3457690237777026	-0.06060529328239511	0.09743051030509509	-0.08217493369704026	0.2921586525053512	0.2921586525053474	0.01777173688802727	-0.02145478994082218	0.07152524541437079	-0.02762747294905272	0.09439836798200223	-0.09492785079374072	-0.02779729819219491	-0.2248852220919064	0.183470101703686	-0.009995621092534955	-0.04050530647201823	23.54697403094165	-2.65301692474939	3.366658855242232	-2.337945576050507	-516.1666884483622	-82.23737299799076	-39.89097921088357	-3.732126201796501	-1.564757544472528	-0.8889438978238502	10.91841284417281	-1.912184883699747	3.145197021695848	-2.585876012243286	9.249526270266502	9.249526270266349	0.5550488070012151	-0.620542360437335	2.261339033815183	-0.8717741195873201	-1.40445056824262e-07	1.957189804055963e-07	3.433465834761254e-07	1.142079008879655e-07	-6.376694449211062e-07	-1.920961849218607e-07	-2.350856895064145e-08
0.04	-0.04218159560011651	0.06735404034535269	0.8951950675113098	0.2047906515320041	-0.323858615118101	-0.4762396062919191	-0.1401170467710467	0.07797828229794022	0.07797828229794	-0.1740581910933773	-0.1141174017229431	-0.06509499761671525	0.002782241591006736	-0.1568019592332395	-0.06471124495096664	-0.03640201499191756	0.4547271008015583	-0.07942945382208211	0.128294835315563	-0.1065417352044352	0.3842547259948749	0.3842547259948713	0.02358648258281521	-0.02802610757679393	0.09421545373626372	-0.0359839126031281	0.0899846157359615	-0.09174921792898523	-0.02705369607490307	-0.2206169795090485	0.1784877091796317	-0.009371431614169449	-0.03681856958268193	22.05979959580687	-2.737415074322733	3.464304780148637	-2.0512783112563	-515.2794029757994	-81.69262450814662	-39.95680571601472	-3.840295871369514	-1.521609979430498	-0.9143924382308758	11.01188523660152	-1.858843233971939	3.008607630693704	-2.210361361767687	9.26507306657777	9.265073066578012	0.6377591950046911	-0.7469479787180857	2.312679023253515	-0.7864378519809478	-1.696083133281648e-07	2.141440172677981e-07	3.984932712653069e-07	1.423551686790145e-07	-8.058908964574355e-07	-2.290776630367793e-07	-2.739228501524178e-08
0.05	-0.0439328943151646	0.06663205872629148	0.8947861531550174	0.209870724820976	-0.3247440217828608	-0.4748059188628598	-0.1412976317692529	0.0822709591760786	0.08227095917607931	-0.1737933550425452	-0.1144297385286985	-0.06404151312956274	0.002382670639528744	-0.1932592016058083	-0.07959875071974008	-0.04538965326344224	0.5607605143810216	-0.09752616144626644	0.1583128036232465	-0.129344022606153	0.4738302739156869	0.4738302739156898	0.02935781339468395	-0.03438445016707585	0.1163765802336955	-0.04385431621302106	0.08499906542791894	-0.08767263649335208	-0.02621254116635473	-0.2162201630919575	0.1732166781314674	-0.009161531596429545	-0.03278430744073468	20.45420696482831	-2.641670375435851	3.556665890971126	-1.50821092396562	-514.4793399581787	-80.70589910190749	-40.03777648823194	-3.518662796378525	-1.459342955945487	-0.8924316086898053	10.31998822372482	-1.766290604787277	2.978860750111064	-2.280476154730538	8.736244807110099	8.73624480711084	0.5434653339039629	-0.5717059064323438	2.152095777375436	-0.7760255605699414	-1.875003151548435e-07	2.188971771383052e-07	4.355583258200769e-07	1.5979105620431e-07	-9.1001899148916e-07	-2.53981996625636e-07	-3.018959261143166e-08
0.06	-0.04604281032917477	0.06576379763347352	0.8942870659985944	0.2159953160067624	-0.3258066367394915	-0.4730759578868617	-0.1426993023865477	0.08744588136388123	0.0874458813638803	-0.173471476621665	-0.1148039444618041	-0.06276956411455842	0.001906658862936532	-0.2285254190254897	-0.09396713970231831	-0.05443657501802961	0.6636306801647279	-0.1148711121962745	0.1875495447031456	-0.150758859022135	0.5607037879275861	0.5607037879275906	0.03499495659159155	-0.04039993304732224	0.137908359306624	-0.05127207762597369	0.08001351511986428	-0.08359605505772101	-0.0253713862578239	-0.2118233466748727	0.1679456470832991	-0.00895163157869389	-0.02875004529879214	18.90133414485846	-2.553854358491659	3.648804260768555	-1.107017469789074	-512.9187244269668	-79.57651982044101	-40.13172719616838	-3.602090880791982	-1.417786622191472	-0.9262491348434158	10.37923567745012	-1.708491859136693	2.852362185136823	-1.932871164620528	8.724666284795228	8.72466628479444	0.6109216720124587	-0.6783760367109862	2.186809538352846	-0.695909412592899	-2.04917737837218e-07	2.230746790302148e-07	4.718620484491875e-07	1.767759382447315e-07	-1.011448418878585e-06	-2.783778188660269e-07	-3.294115669316213e-08
0.07000000000000001	-0.04850021148886625	0.06475446482611484	0.8936969748728735	0.2231342552831463	-0.3270389650193257	-0.4710579003874187	-0.144307522815166	0.09347707966227593	0.09347707966227513	-0.1730936854448052	-0.1152373219707503	-0.06128502546117583	0.001358929012479449	-0.262752000188789	-0.1078071942159001	-0.06360334444773363	0.7636237556174712	-0.1314632328789042	0.2159246673766002	-0.1706715462434031	0.6450826007252676	0.6450826007252405	0.04053300908008245	-0.04622389294599487	0.1588957932453193	-0.05819219361076643	0.07494460181705763	-0.08016478397691848	-0.02456676050646613	-0.208260867732296	0.1632463851647855	-0.008257974051052254	-0.02469631856270361	17.53467877990878	-2.681162110982778	3.743738668751569	-0.8184932797132418	-511.5671710355182	-78.89242854369145	-40.23621243551878	-3.302530528871733	-1.35324517190842	-0.9153485144050667	9.729303421112474	-1.614945514835988	2.809429432420483	-1.98841543212064	8.226504744946407	8.226504744942174	0.5207984210394471	-0.5265918176331202	2.039168019606601	-0.677895378257499	-2.120929293880715e-07	2.013793289821219e-07	4.88570399851031e-07	1.826399071714305e-07	-1.060490409144848e-06	-2.933120350924257e-07	-3.569736789223935e-08
0.08	-0.05129379621914609	0.06360950541242691	0.8930145245193815	0.2312571173024428	-0.328433289174388	-0.4687602232364466	-0.146108459702245	0.1003384692821854	0.100338469282185	-0.1726614034663043	-0.1157273762489211	-0.05959372092881052	0.0007444314648074289	-0.2957621331429963	-0.1210924609681727	-0.07290842057228521	0.8604152287472566	-0.147270287241929	0.2434734750088824	-0.189302150714295	0.7267420522306218	0.7267420522305672	0.04589311691945407	-0.05173528689217664	0.1792615351031638	-0.06462561706896151	0.06987568851425503	-0.07673351289611899	-0.0237621347551063	-0.204698388789721	0.1585471232462701	-0.007564316523414934	-0.02064259182660789	16.21442239877391	-2.81503294311296	3.837936715148836	-0.6548098553878144	-509.5435374730632	-78.08155425020303	-40.34863839396721	-3.35880123897358	-1.306829069929633	-0.9539104738129299	9.738915212858593	-1.551478595215745	2.687099176902318	-1.676454614545296	8.180794026329838	8.180794026329828	0.5753327421885963	-0.6158628462128242	2.062471122182676	-0.5985709072733865	-2.186073318336657e-07	1.780147626798353e-07	5.04014533754341e-07	1.87786397832728e-07	-1.106152564758004e-06	-3.076358251243734e-07	-3.845387890533893e-08
0.09	-0.05441230317821247	0.06233444231985814	0.8922381161031172	0.2403336043322046	-0.329981819909798	-0.4661913723792944	-0.1480884672316918	0.1080040372093906	0.1080040372093913	-0.1721761471448172	-0.1162716009863882	-0.05770143503151717	6.819630562133214e-05	-0.3277435007719106	-0.1338260374709461	-0.08240559135978417	0.9543647264748496	-0.1623013452921085	0.2701743682701964	-0.2064880762352295	0.8059235206443878	0.8059235206443736	0.05112614892174529	-0.05704592224547162	0.1990930699227849	-0.07053665298088588	0.06463191393745446	-0.07321702947631986	-0.02296489738502773	-0.201643111613233	0.154259352169227	-0.0068957748913262	-0.01649315267575217	15.00529349590314	-2.950895017551995	3.924960432363371	-0.4900365004302241	-507.7957743960289	-77.24739278709347	-40.46624497814274	-3.088448443264289	-1.242466288858569	-0.952691651590331	9.145323924564204	-1.458807582025816	2.643163437487363	-1.707969679857009	7.71962909930963	7.719629099315689	0.4925757126115214	-0.4790317283020832	1.928101687000785	-0.5747392042310122	-2.176017674697173e-07	1.401204514599719e-07	5.054905773176533e-07	1.847128213604274e-07	-1.10817911342366e-06	-3.13917618861333e-07	-4.109414077425276e-08
